<?xml version="1.0" encoding="UTF-8"?>
<!-- Generator: Adobe Illustrator 24.3.0, SVG Export Plug-In . SVG Version: 6.00 Build 0)  -->
<svg xmlns="http://www.w3.org/2000/svg" xmlns:xlink="http://www.w3.org/1999/xlink" version="1.1" x="0px" y="0px" viewBox="0 0 20 20" style="enable-background:new 0 0 20 20;" xml:space="preserve">
<style type="text/css">
	.st0{fill:#FFFFFF;}
</style>
<g id="Layer_2">
</g>
<g id="Layer_1">
	<g>
		<path class="st0" d="M19.5,10.1l-2.9-1.6l-1.2-3.2c-0.2-0.4-0.5-0.8-0.9-1l-1.9-0.8c-0.3-0.1-0.7,0-0.9,0.3l-0.9,2L5.2,3.1    C4.9,3,4.5,3.1,4.4,3.4l-1,2.1C3.2,6,3.4,6.4,3.8,6.6l1.5,0.7c-0.3,0.9,0.1,1.9,1,2.3c0.9,0.4,1.9,0,2.4-0.8l4.6,2.1    c-0.3,0.9,0.1,1.9,1,2.3c0.9,0.4,1.9,0,2.4-0.8l1.5,0.7c0.4,0.2,0.9,0,1.1-0.5l0.6-1.6C20,10.7,19.9,10.3,19.5,10.1z M7.8,8.3    C7.6,8.7,7.1,8.9,6.7,8.7C6.2,8.5,6,8,6.2,7.5c0.2-0.4,0.7-0.6,1.2-0.4C7.9,7.3,8,7.8,7.8,8.3z M12.1,6.3l0.6-1.4L14,5.4    c0.1,0,0.2,0.1,0.2,0.3l0.7,1.9L12.1,6.3z M15.9,11.9c-0.2,0.4-0.7,0.6-1.2,0.4c-0.4-0.2-0.6-0.7-0.4-1.2c0.2-0.4,0.7-0.6,1.2-0.4    C15.9,11,16.1,11.5,15.9,11.9z"></path>
		<path class="st0" d="M17.8,15.5c0,0-0.1-0.1-0.2-0.1l-1.8-1.1c-0.1-0.1-0.2-0.1-0.3-0.1l-1.5-0.3c-0.2,0-0.3-0.1-0.5-0.2l-1-1    c-0.1-0.1-0.2-0.1-0.3-0.2l-2.2-0.8c-0.1,0-0.2-0.1-0.3-0.1H9c-0.3,0-0.5-0.1-0.6-0.3l-0.6-0.6c-0.1-0.1-0.3-0.2-0.5-0.3L5.4,10    C5.2,10,5,9.9,4.9,9.7L3.4,8.1C3.3,8,3.1,7.9,2.9,7.8L1.4,7.6c-0.2,0-0.4,0-0.6,0.1L0.5,7.8C0.3,8,0.1,8.3,0.1,8.6v7.5    C0.1,16.6,0.5,17,1,17h16.8c0.6,0,0.8-0.7,0.4-1.1L17.8,15.5z"></path>
	</g>
</g>
</svg>
