<?xml version="1.0" encoding="UTF-8"?>
<!-- Generator: Adobe Illustrator 24.3.0, SVG Export Plug-In . SVG Version: 6.00 Build 0)  -->
<svg xmlns="http://www.w3.org/2000/svg" xmlns:xlink="http://www.w3.org/1999/xlink" version="1.1" id="Layer_1" x="0px" y="0px" viewBox="0 0 20 20" style="enable-background:new 0 0 20 20;" xml:space="preserve">
<style type="text/css">
	.st0{fill:#FFFFFF;}
</style>
<path class="st0" d="M15,16.8C15,16.8,15,16.8,15,16.8C15,16.8,15,16.7,15,16.8C15,16.7,15,16.7,15,16.7s0,0,0,0s0-0.1-0.1-0.1  l-2.3-2.3c-0.1-0.1-0.3-0.2-0.4-0.2c-0.3,0-0.6,0.3-0.6,0.6c0,0,0,0,0,0v2.3c0,0.2,0.1,0.3,0.2,0.4l2.3,2.3c0,0,0.1,0.1,0.1,0.1  c0,0,0,0,0,0c0,0,0,0,0,0c0,0,0,0,0.1,0s0,0,0,0s0.1,0,0.1,0h0.1c0,0,0,0,0.1,0h0c0,0,0,0,0.1,0c0,0,0,0,0,0c0.1,0,0.1-0.1,0.2-0.2  c0,0,0,0,0,0s0,0,0-0.1s0,0,0,0c0,0,0,0,0,0v-2.5C15,16.9,15.1,16.9,15,16.8z M12.7,16l1.2,1.2v0.7l-1.2-1.2V16z"></path>
<path class="st0" d="M15,12.2C15,12.2,15,12.1,15,12.2C15,12.1,15,12.1,15,12.2C15,12.1,15,12.1,15,12s0,0,0,0s0-0.1-0.1-0.1  l-2.3-2.3c-0.1-0.1-0.3-0.2-0.4-0.2c-0.3,0-0.6,0.3-0.6,0.6c0,0,0,0,0,0v2.3c0,0.2,0.1,0.3,0.2,0.4l2.3,2.3c0,0,0.1,0.1,0.1,0.1  c0,0,0,0,0,0c0,0,0,0,0,0c0,0,0,0,0.1,0s0,0,0,0s0.1,0,0.1,0h0.1c0,0,0,0,0.1,0h0c0,0,0,0,0.1,0c0,0,0,0,0,0c0.1,0,0.1-0.1,0.2-0.2  c0,0,0,0,0,0s0,0,0-0.1s0,0,0,0c0,0,0,0,0,0v-2.5C15,12.3,15.1,12.2,15,12.2z M12.7,11.4l1.2,1.2v0.7l-1.2-1.2V11.4z"></path>
<path class="st0" d="M15,7.6C15,7.5,15,7.5,15,7.6C15,7.5,15,7.5,15,7.6C15,7.5,15,7.4,15,7.4s0,0,0,0s0-0.1-0.1-0.1l-2.3-2.3  c-0.1-0.1-0.3-0.2-0.4-0.2c-0.3,0-0.6,0.3-0.6,0.6c0,0,0,0,0,0v2.3c0,0.2,0.1,0.3,0.2,0.4l2.3,2.3c0,0,0.1,0.1,0.1,0.1c0,0,0,0,0,0  c0,0,0,0,0,0c0,0,0,0,0.1,0s0,0,0,0s0.1,0,0.1,0h0.1c0,0,0,0,0.1,0h0c0,0,0,0,0.1,0c0,0,0,0,0,0c0.1,0,0.1-0.1,0.2-0.2c0,0,0,0,0,0  s0,0,0-0.1s0,0,0,0c0,0,0,0,0,0C15,10.1,15,7.6,15,7.6z M12.7,6.7l1.2,1.2v0.7l-1.2-1.2V6.7z"></path>
<path class="st0" d="M15,3L15,3c0-0.1,0-0.1,0-0.1s0,0,0,0s0,0,0-0.1s0,0,0,0c0,0,0-0.1-0.1-0.1l-2.3-2.3c-0.1-0.1-0.3-0.2-0.4-0.2  c-0.3,0-0.6,0.3-0.6,0.6c0,0,0,0,0,0V3c0,0.2,0.1,0.3,0.2,0.4l2.3,2.3c0,0,0.1,0.1,0.1,0.1c0,0,0,0,0,0c0,0,0,0,0,0c0,0,0,0,0.1,0  s0,0,0,0s0.1,0,0.1,0h0.1c0,0,0,0,0.1,0h0c0,0,0,0,0.1,0c0,0,0,0,0,0c0.1,0,0.1-0.1,0.2-0.2c0,0,0,0,0,0s0,0,0-0.1s0,0,0,0  c0,0,0,0,0,0C15,5.5,15,3,15,3z M12.7,2.1l1.2,1.2v0.7l-1.2-1.2V2.1z"></path>
<path class="st0" d="M9.8,0.1c-0.3,0-0.6,0.3-0.6,0.6c0,0,0,0,0,0v18.5c0,0.3,0.3,0.6,0.6,0.6s0.6-0.3,0.6-0.6V0.7  C10.4,0.4,10.2,0.1,9.8,0.1C9.8,0.1,9.8,0.1,9.8,0.1z"></path>
<path class="st0" d="M7.5,14c-0.2,0-0.3,0.1-0.4,0.2l-2.3,2.3c0,0-0.1,0.1-0.1,0.1v0c0,0,0,0,0,0.1v0c0,0,0,0,0,0.1v2.4  c0,0.3,0.2,0.6,0.5,0.6c0,0,0,0,0.1,0c0,0,0.1,0,0.1,0c0,0,0,0,0,0c0,0,0.1,0,0.1,0c0,0,0,0,0,0c0,0,0,0,0,0s0.1,0,0.1-0.1l2.3-2.3  c0.1-0.1,0.2-0.3,0.2-0.4v-2.3C8.1,14.3,7.8,14,7.5,14z M5.8,17.2L6.9,16v0.7l-1.2,1.2V17.2z"></path>
<path class="st0" d="M7.5,9.4c-0.2,0-0.3,0.1-0.4,0.2l-2.3,2.3c0,0-0.1,0.1-0.1,0.1v0c0,0,0,0,0,0.1v0c0,0,0,0,0,0.1v2.4  c0,0.3,0.2,0.6,0.5,0.6c0,0,0,0,0.1,0c0,0,0.1,0,0.1,0c0,0,0,0,0,0c0,0,0.1,0,0.1,0c0,0,0,0,0,0c0,0,0,0,0,0s0.1,0,0.1-0.1l2.3-2.3  c0.1-0.1,0.2-0.3,0.2-0.4V10C8.1,9.7,7.8,9.4,7.5,9.4z M5.8,12.5l1.2-1.2v0.7l-1.2,1.2V12.5z"></path>
<path class="st0" d="M7.5,4.8c-0.2,0-0.3,0.1-0.4,0.2L4.8,7.3c0,0-0.1,0.1-0.1,0.1v0c0,0,0,0,0,0.1v0c0,0,0,0,0,0.1V10  c0,0.3,0.2,0.6,0.5,0.6c0,0,0,0,0.1,0c0,0,0.1,0,0.1,0c0,0,0,0,0,0c0,0,0.1,0,0.1,0c0,0,0,0,0,0c0,0,0,0,0,0s0.1,0,0.1-0.1l2.3-2.3  C8,8,8.1,7.8,8.1,7.6V5.3C8.1,5,7.8,4.8,7.5,4.8z M5.8,7.9l1.2-1.2v0.7L5.8,8.6V7.9z"></path>
<path class="st0" d="M7.5,0.1c-0.2,0-0.3,0.1-0.4,0.2L4.8,2.6c0,0-0.1,0.1-0.1,0.1v0c0,0,0,0,0,0.1v0c0,0,0,0,0,0.1v2.4  c0,0.3,0.2,0.6,0.5,0.6c0,0,0,0,0.1,0c0,0,0.1,0,0.1,0c0,0,0,0,0,0c0,0,0.1,0,0.1,0c0,0,0,0,0,0c0,0,0,0,0,0s0.1,0,0.1-0.1l2.3-2.3  C8,3.3,8.1,3.2,8.1,3V0.7C8.1,0.4,7.8,0.1,7.5,0.1z M5.8,3.3l1.2-1.2v0.7L5.8,3.9V3.3z"></path>
</svg>
