<?xml version="1.0" encoding="UTF-8"?>
<svg xmlns="http://www.w3.org/2000/svg" id="Layer_1" data-name="Layer 1" viewBox="0 0 71.3 90.4">
  <defs>
    <style>.cls-1{fill:#fff;}</style>
  </defs>
  <path class="cls-1" d="M70.5,71.22c-2.06-5.83-2.23-21.36-3.65-27.14C65,45.79,57.29,45.73,54,50.92c-1.35,2.1-.61,2.62-3.63,3.73A23.36,23.36,0,0,0,47,55.82c-5.07,3.54-10.76,5.34-16.74,6.75-4.05,1-17.74,4.23-26.6,6.37-.27.06-.53.14-.86.24v2Z"></path>
  <path class="cls-1" d="M33.11,51.11a8.22,8.22,0,0,1,.51,5.33A7.34,7.34,0,0,1,28.18,62a7.07,7.07,0,0,1-7.36-2c-1-1-1.69-1.84-3.42-1.39a4.16,4.16,0,0,1-4.44-2c-.39-.56-.72-.65-1.26-.31a9.71,9.71,0,0,1-1,.53c-1.89.92-3.15.6-4.13-1.25Q3.77,50.27,1.15,44.94C.24,43.11.74,41.8,2.52,40.79a5.39,5.39,0,0,1,.83-.42c.76-.26.91-.66.65-1.47a4.93,4.93,0,0,1,2.55-5.84q11.94-6.17,23.91-12.24a5.26,5.26,0,0,1,5,.14c2.72,1.34,5.43,2.7,8.18,4a3.15,3.15,0,0,0,1.94.2c1.88-.43,3.74-.93,5.57-1.53,2.61-.85,5.08-.07,6.23,2.15s2.28,4.25,3.19,6.47a4.61,4.61,0,0,1-1.64,5.51,1.15,1.15,0,0,0-.47,1.55A7.6,7.6,0,0,1,45,46.21c-.52-.72-.85-.81-1.62-.4-3.1,1.65-6.25,3.22-9.37,4.82Zm-3.48-12.6c-5,2.55-10,5.12-15,7.65-.78.39-1,.7-.54,1.53.86,1.49,1.57,3.07,2.39,4.58.21.39.68,1,.84,1a5.31,5.31,0,0,0,1.61-1c.21-.18.24-.56.36-.85a7.68,7.68,0,0,1,8.44-4.25,3,3,0,0,0,2.35-.3q6.33-3.27,12.69-6.49a2.92,2.92,0,0,0,1.5-1.57,7.5,7.5,0,0,1,7.49-4.57,8,8,0,0,0,1.51.23,6,6,0,0,0,2.07-.65c.11-.06-.12-1-.33-1.41-.51-1.13-1.08-2.23-1.69-3.31-.15-.25-.6-.56-.81-.5A61.62,61.62,0,0,0,44,31.24C39.11,33.46,34.41,36.06,29.63,38.51Zm-11.51.17c2-1,4-2,6-3,.63-.32.78-.63.41-1.27-.56-1-1.07-2-1.55-3-.26-.54-.55-.73-1.12-.43Q15.74,34,9.62,37.16c-.58.3-.57.65-.29,1.17a32.41,32.41,0,0,1,1.49,2.94c.34.8.75.8,1.43.43C14.19,40.66,16.16,39.68,18.12,38.68ZM38.53,28.16c-2-1-3.77-1.81-5.53-2.64a.62.62,0,0,0-.5,0c-1.77.88-3.53,1.79-5.34,2.72l2.33,4.55ZM53.48,40.69a2.41,2.41,0,0,0-3.38-1.11A2.51,2.51,0,0,0,49,42.91,2.65,2.65,0,0,0,52.41,44,2.5,2.5,0,0,0,53.48,40.69ZM24,55.78a2.52,2.52,0,0,0,3.35,1.06,2.59,2.59,0,0,0,1.05-3.46,2.48,2.48,0,0,0-3.36-1A2.43,2.43,0,0,0,24,55.78Z"></path>
</svg>
