<?xml version="1.0" encoding="UTF-8"?>
<!-- Generator: Adobe Illustrator 24.3.0, SVG Export Plug-In . SVG Version: 6.00 Build 0)  -->
<svg xmlns="http://www.w3.org/2000/svg" xmlns:xlink="http://www.w3.org/1999/xlink" version="1.1" x="0px" y="0px" viewBox="0 0 20 20.5" style="enable-background:new 0 0 20 20.5;" xml:space="preserve">
<style type="text/css">
	.st0{fill:#FFFFFF;}
</style>
<g id="Layer_2">
</g>
<g id="Layer_1">
	<g>
		<path class="st0" d="M19.8,17.8l-0.9-0.5l0.7-0.3c0.2-0.1,0.3-0.3,0.2-0.5c-0.1-0.2-0.3-0.3-0.5-0.2l-1.2,0.6l-0.9-0.5    c-0.3-0.2-0.3-0.5,0-0.7l0.9-0.5l1.2,0.6c0,0,0.1,0,0.2,0c0.2,0,0.3-0.1,0.3-0.2c0.1-0.2,0-0.4-0.2-0.5l-0.7-0.3l0.9-0.5    c0.2-0.1,0.2-0.3,0.2-0.5c-0.1-0.2-0.3-0.3-0.5-0.2l-0.9,0.5l0.1-0.8c0-0.2-0.1-0.4-0.3-0.4c-0.2,0-0.4,0.1-0.4,0.3l-0.2,1.3    L16.9,15c-0.3,0.1-0.6,0-0.6-0.3v-1.1l1.1-0.8c0.2-0.1,0.2-0.3,0.1-0.5c-0.1-0.2-0.3-0.2-0.5-0.1l-0.7,0.5v-1    c0-0.2-0.1-0.4-0.3-0.4c-0.2,0-0.4,0.2-0.4,0.4v1l-0.7-0.5c-0.2-0.1-0.4-0.1-0.5,0c-0.2,0.2-0.1,0.4,0.1,0.5l1.1,0.8v1.1    c0,0.3-0.3,0.5-0.6,0.3l-0.9-0.5l-0.1-1.3c0-0.2-0.2-0.3-0.4-0.3c-0.2,0-0.4,0.2-0.4,0.4l0.1,0.8l-0.9-0.5    c-0.2-0.1-0.4-0.1-0.5,0.1c-0.1,0.2-0.1,0.4,0.1,0.5l0.9,0.5L12.2,15c-0.2,0.1-0.3,0.3-0.2,0.5c0,0.2,0.2,0.2,0.3,0.2    c0,0,0.1,0,0.2,0l1.2-0.5l0.9,0.5c0.3,0.2,0.3,0.5,0,0.7l-0.9,0.5l-1.2-0.6c-0.2-0.1-0.4,0-0.5,0.2c-0.1,0.2,0,0.4,0.2,0.5    l0.7,0.3L12,17.8c-0.2,0.1-0.2,0.3-0.2,0.5c0.1,0.2,0.2,0.2,0.3,0.2c0.1,0,0.1,0,0.2,0l0.9-0.5l-0.1,0.8c0,0.2,0.1,0.4,0.3,0.4    c0,0,0,0,0,0c0.2,0,0.3-0.2,0.4-0.3l0.1-1.3l0.9-0.5c0.3-0.2,0.6,0,0.6,0.3v1.1l-1.1,0.8c-0.2,0.1-0.2,0.3-0.1,0.5    c0.1,0.1,0.2,0.2,0.3,0.2c0.1,0,0.2,0,0.2-0.1l0.7-0.5v1c0,0.2,0.1,0.4,0.3,0.4c0.2,0,0.4-0.2,0.4-0.4v-1.1l0.7,0.5    c0.1,0,0.1,0.1,0.2,0.1c0.1,0,0.2-0.1,0.3-0.2c0.1-0.2,0-0.4-0.1-0.5l-1.1-0.8v-1.1c0-0.3,0.3-0.5,0.6-0.3l0.9,0.5l0.1,1.3    c0,0.2,0.2,0.3,0.4,0.3c0,0,0,0,0,0c0.2,0,0.3-0.2,0.3-0.4l-0.1-0.8l0.9,0.5c0.1,0,0.1,0,0.2,0c0.2,0,0.3-0.1,0.3-0.2    C20,18.1,19.9,17.9,19.8,17.8z"></path>
		<circle class="st0" cx="4.9" cy="4.9" r="2.1"></circle>
		<path class="st0" d="M4.9,2.1c0.3,0,0.5-0.2,0.5-0.5v-1c0-0.3-0.2-0.5-0.5-0.5c-0.3,0-0.5,0.2-0.5,0.5v1C4.4,1.9,4.6,2.1,4.9,2.1z    "></path>
		<path class="st0" d="M2.3,3c0.1,0.1,0.2,0.1,0.3,0.1c0.1,0,0.2,0,0.3-0.1c0.2-0.2,0.2-0.5,0-0.6L2.1,1.6C2,1.4,1.7,1.4,1.5,1.6    C1.3,1.8,1.3,2,1.5,2.2L2.3,3z"></path>
		<path class="st0" d="M1.6,5.4c0.3,0,0.5-0.2,0.5-0.5c0-0.3-0.2-0.5-0.5-0.5h-1c-0.3,0-0.5,0.2-0.5,0.5c0,0.3,0.2,0.5,0.5,0.5H1.6z    "></path>
		<path class="st0" d="M2.3,6.9L1.5,7.7c-0.2,0.2-0.2,0.5,0,0.6c0.1,0.1,0.2,0.1,0.3,0.1c0.1,0,0.2,0,0.3-0.1l0.7-0.7    c0.2-0.2,0.2-0.5,0-0.6C2.7,6.8,2.4,6.8,2.3,6.9z"></path>
		<path class="st0" d="M4.4,8.2v1c0,0.3,0.2,0.5,0.5,0.5c0.3,0,0.5-0.2,0.5-0.5v-1c0-0.3-0.2-0.5-0.5-0.5C4.6,7.8,4.4,8,4.4,8.2z"></path>
		<path class="st0" d="M6.9,6.9c-0.2,0.2-0.2,0.5,0,0.6l0.7,0.7c0.1,0.1,0.2,0.1,0.3,0.1c0.1,0,0.2,0,0.3-0.1c0.2-0.2,0.2-0.5,0-0.6    L7.5,6.9C7.3,6.8,7,6.8,6.9,6.9z"></path>
		<path class="st0" d="M9.2,4.5h-1c-0.3,0-0.5,0.2-0.5,0.5c0,0.3,0.2,0.5,0.5,0.5h1c0.3,0,0.5-0.2,0.5-0.5C9.6,4.7,9.4,4.5,9.2,4.5z    "></path>
		<path class="st0" d="M7.2,3.1c0.1,0,0.2,0,0.3-0.1l0.7-0.7c0.2-0.2,0.2-0.5,0-0.6c-0.2-0.2-0.5-0.2-0.6,0L6.9,2.3    C6.7,2.5,6.7,2.8,6.9,3C7,3.1,7.1,3.1,7.2,3.1z"></path>
		<path class="st0" d="M13,9.5c0,0,0.1,0,0.2,0c0.2,0,0.3-0.1,0.4-0.3c0.3-0.7,0.6-1.3,1-1.8c1.1,0.6,2.4,0.7,3.3,0.1    c1.5-1,1.8-4.7,1.7-6.8c0-0.4-0.5-0.6-0.8-0.3c-2.3,2.2-5.7,2.2-5.9,4.6c0,0.5,0.1,1,0.5,1.5c1.6-1.6,3.4-2.2,3.5-2.2    c0,0,0,0,0.1,0C16.4,4.5,14,5.9,12.8,9C12.7,9.2,12.8,9.5,13,9.5z"></path>
		<path class="st0" d="M8,15c-0.3,0-0.8,0.1-1.3,0.2c0.4-0.2,0.9-0.6,1.1-0.8c0.5-0.5,0.7-1.3,0.3-1.7c-0.4-0.4-1.1-0.2-1.7,0.3    c-0.2,0.2-0.5,0.6-0.8,1.1c0.1-0.5,0.2-1,0.2-1.3c0-0.8-0.4-1.4-0.9-1.4s-0.9,0.6-0.9,1.4c0,0.3,0.1,0.8,0.2,1.3    c-0.2-0.4-0.6-0.9-0.8-1.1c-0.5-0.5-1.3-0.7-1.7-0.3c-0.4,0.4-0.2,1.1,0.3,1.7c0.2,0.2,0.6,0.5,1.1,0.8c-0.5-0.1-1-0.2-1.3-0.2    C1,15,0.4,15.5,0.4,16c0,0.5,0.6,0.9,1.4,0.9c0.3,0,0.8-0.1,1.3-0.2C2.7,17,2.2,17.3,2,17.5c-0.5,0.5-0.7,1.3-0.3,1.7    c0.4,0.4,1.1,0.2,1.7-0.3c0.2-0.2,0.5-0.6,0.8-1.1c-0.1,0.5-0.2,1-0.2,1.3c0,0.8,0.4,1.4,0.9,1.4c0.5,0,0.9-0.6,0.9-1.4    c0-0.3-0.1-0.8-0.2-1.3c0.2,0.4,0.6,0.9,0.8,1.1c0.5,0.5,1.3,0.7,1.7,0.3c0.4-0.4,0.2-1.1-0.3-1.7c-0.2-0.2-0.6-0.5-1.1-0.8    c0.5,0.1,1,0.2,1.3,0.2c0.8,0,1.4-0.4,1.4-0.9C9.4,15.5,8.7,15,8,15z M4.9,17.1c-0.6,0-1.1-0.5-1.1-1.1s0.5-1.1,1.1-1.1    S6,15.4,6,16C6,16.6,5.5,17.1,4.9,17.1z"></path>
	</g>
</g>
</svg>
