<?xml version="1.0" encoding="UTF-8"?>
<svg xmlns="http://www.w3.org/2000/svg" id="Layer_1" data-name="Layer 1" viewBox="0 0 71.3 90.4">
  <defs>
    <style>.cls-1{fill:#fff;}</style>
  </defs>
  <path class="cls-1" d="M70.5,75.53C68.48,69.79,66.05,48.72,64,43c-1.81,1.69-9.52,4.9-10.89,10.8-.76,3.27,1.26,7.7-2.93,5.48-.62-.33-2.24.74-2.81,1.14-5,3.48-10.58,5.25-16.46,6.64C27,68,13.49,71.18,4.77,73.28l-.84.24v2Z"></path>
  <polygon class="cls-1" points="23.82 66.63 16.78 64.84 15.54 70.13 23.82 66.63"></polygon>
  <polygon class="cls-1" points="13.33 62.04 1.22 60.3 6.02 55.88 13.33 62.04"></polygon>
  <polygon class="cls-1" points="16.51 63.9 1.08 64.14 3.83 70.22 16.51 63.9"></polygon>
  <path class="cls-1" d="M40.12,51.13a8.13,8.13,0,0,1,1.67,5,7.19,7.19,0,0,1-4,6.5,7,7,0,0,1-7.5-.29c-1.17-.79-2-1.38-3.58-.56a4.09,4.09,0,0,1-4.7-.92c-.5-.44-.83-.45-1.27,0a9.9,9.9,0,0,1-.85.73c-1.6,1.31-2.88,1.29-4.24-.27q-3.84-4.39-7.55-8.91c-1.28-1.55-1.1-2.91.38-4.28a5.47,5.47,0,0,1,.7-.59c.68-.42.72-.83.29-1.56a4.86,4.86,0,0,1,1.14-6.16q10-8.58,20.15-17.08a5.18,5.18,0,0,1,4.78-1c2.9.67,5.8,1.36,8.72,2a3.19,3.19,0,0,0,1.9-.25c1.7-.83,3.37-1.73,5-2.71,2.31-1.4,4.85-1.21,6.45.67s3.13,3.55,4.5,5.47a4.55,4.55,0,0,1-.33,5.65,1.13,1.13,0,0,0-.11,1.58,7.48,7.48,0,0,1-11.26,9.65c-.65-.57-1-.59-1.64,0C46.2,46,43.54,48.23,40.9,50.46ZM34,39.85C29.75,43.41,25.55,47,21.32,50.53c-.66.55-.81.9-.17,1.59,1.15,1.24,2.19,2.58,3.31,3.85.28.32.88.82,1,.74a5,5,0,0,0,1.32-1.32c.16-.21.11-.58.16-.88a7.54,7.54,0,0,1,7.13-6,3.08,3.08,0,0,0,2.18-.82q5.32-4.54,10.69-9a2.93,2.93,0,0,0,1.09-1.84,7.36,7.36,0,0,1,6.14-6.06,9.11,9.11,0,0,0,1.5-.12,6,6,0,0,0,1.84-1.08c.09-.09-.33-.9-.63-1.29-.75-1-1.54-1.89-2.37-2.78a1,1,0,0,0-.88-.3,61.37,61.37,0,0,0-7.57,4.46C41.91,32.89,38,36.44,34,39.85ZM23,42.59c1.67-1.42,3.34-2.86,5-4.25.53-.44.61-.78.11-1.31-.76-.82-1.47-1.68-2.17-2.55-.36-.46-.68-.58-1.17-.16Q19.66,38.68,14.5,43c-.49.41-.41.75,0,1.18.72.81,1.45,1.61,2.09,2.48.51.69.89.6,1.46.1C19.66,45.37,21.33,44,23,42.59ZM40.16,27.94l-5.89-1.29a.64.64,0,0,0-.47.1c-1.5,1.25-3,2.51-4.51,3.81l3.25,3.84Zm17.12,8.65a2.37,2.37,0,0,0-3.48-.31,2.48,2.48,0,0,0-.35,3.45A2.6,2.6,0,0,0,57,40,2.46,2.46,0,0,0,57.28,36.59Zm-24.81,21a2.47,2.47,0,0,0,3.44.26,2.54,2.54,0,0,0,.23-3.54,2.44,2.44,0,0,0-3.44-.21A2.38,2.38,0,0,0,32.47,57.64Z"></path>
</svg>
